%TF.GenerationSoftware,KiCad,Pcbnew,10.0.6*%
%TF.CreationDate,2026-09-23T15:07:32+00:00*%
%TF.ProjectId,5V to 3.3V LDO,35562074-6f20-4332-9e33-56204c444f2e,rev?*%
%TF.SameCoordinates,Original*%
%TF.FileFunction,Copper,L1,Top*%
%TF.FilePolarity,Positive*%
%FSLAX46Y46*%
G04 Gerber Fmt 4.6, Leading zero omitted, Abs format (unit mm)*
G04 Created by KiCad (PCBNEW 10.0.6) date 2026-09-23 15:07:32*
%MOMM*%
%LPD*%
G01*
G04 APERTURE LIST*
G04 Aperture macros list*
%AMRoundRect*
0 Rectangle with rounded corners*
0 $1 Rounding radius*
0 $2 $3 $4 $5 $6 $7 $8 $9 X,Y pos of 4 corners*
0 Add a 4 corners polygon primitive as box body*
4,1,4,$2,$3,$4,$5,$6,$7,$8,$9,$2,$3,0*
0 Add four circle primitives for the rounded corners*
1,1,$1+$1,$2,$3*
1,1,$1+$1,$4,$5*
1,1,$1+$1,$6,$7*
1,1,$1+$1,$8,$9*
0 Add four rect primitives between the rounded corners*
20,1,$1+$1,$2,$3,$4,$5,0*
20,1,$1+$1,$4,$5,$6,$7,0*
20,1,$1+$1,$6,$7,$8,$9,0*
20,1,$1+$1,$8,$9,$2,$3,0*%
G04 Aperture macros list end*
%TA.AperFunction,SMDPad,CuDef*%
%ADD10RoundRect,0.250000X0.450000X-0.262500X0.450000X0.262500X-0.450000X0.262500X-0.450000X-0.262500X0*%
%TD*%
%TA.AperFunction,SMDPad,CuDef*%
%ADD11RoundRect,0.250000X-0.250000X-0.475000X0.250000X-0.475000X0.250000X0.475000X-0.250000X0.475000X0*%
%TD*%
%TA.AperFunction,ComponentPad*%
%ADD12R,1.800000X1.800000*%
%TD*%
%TA.AperFunction,ComponentPad*%
%ADD13C,1.800000*%
%TD*%
%TA.AperFunction,SMDPad,CuDef*%
%ADD14RoundRect,0.250000X-0.475000X0.250000X-0.475000X-0.250000X0.475000X-0.250000X0.475000X0.250000X0*%
%TD*%
%TA.AperFunction,ComponentPad*%
%ADD15R,1.700000X1.700000*%
%TD*%
%TA.AperFunction,ComponentPad*%
%ADD16C,1.700000*%
%TD*%
%TA.AperFunction,SMDPad,CuDef*%
%ADD17RoundRect,0.375000X0.625000X0.375000X-0.625000X0.375000X-0.625000X-0.375000X0.625000X-0.375000X0*%
%TD*%
%TA.AperFunction,SMDPad,CuDef*%
%ADD18RoundRect,0.500000X0.500000X1.400000X-0.500000X1.400000X-0.500000X-1.400000X0.500000X-1.400000X0*%
%TD*%
%TA.AperFunction,ViaPad*%
%ADD19C,0.600000*%
%TD*%
%TA.AperFunction,Conductor*%
%ADD20C,0.500000*%
%TD*%
%TA.AperFunction,Conductor*%
%ADD21C,0.200000*%
%TD*%
G04 APERTURE END LIST*
D10*
%TO.P,R1,1*%
%TO.N,Net-(D1-A)*%
X140000000Y-103112500D03*
%TO.P,R1,2*%
%TO.N,/3V3*%
X140000000Y-101287500D03*
%TD*%
D11*
%TO.P,C2,1*%
%TO.N,+5V*%
X136100000Y-104685000D03*
%TO.P,C2,2*%
%TO.N,GND*%
X138000000Y-104685000D03*
%TD*%
D12*
%TO.P,D1,1,K*%
%TO.N,GND*%
X144400000Y-102400000D03*
D13*
%TO.P,D1,2,A*%
%TO.N,Net-(D1-A)*%
X144400000Y-104940000D03*
%TD*%
D14*
%TO.P,C4,1*%
%TO.N,/3V3*%
X140000000Y-97725000D03*
%TO.P,C4,2*%
%TO.N,GND*%
X140000000Y-99625000D03*
%TD*%
D15*
%TO.P,J2,1,Pin_1*%
%TO.N,/3V3*%
X145200000Y-96000000D03*
D16*
%TO.P,J2,2,Pin_2*%
%TO.N,GND*%
X145200000Y-98540000D03*
%TD*%
D14*
%TO.P,C3,1*%
%TO.N,/3V3*%
X142210000Y-97725000D03*
%TO.P,C3,2*%
%TO.N,GND*%
X142210000Y-99625000D03*
%TD*%
D15*
%TO.P,J1,1,Pin_1*%
%TO.N,+5V*%
X136200000Y-107600000D03*
D16*
%TO.P,J1,2,Pin_2*%
%TO.N,GND*%
X138740000Y-107600000D03*
%TD*%
D11*
%TO.P,C1,1*%
%TO.N,+5V*%
X136100000Y-102475000D03*
%TO.P,C1,2*%
%TO.N,GND*%
X138000000Y-102475000D03*
%TD*%
D17*
%TO.P,U1,1,GND*%
%TO.N,GND*%
X137550000Y-99900000D03*
%TO.P,U1,2,VO*%
%TO.N,/3V3*%
X137550000Y-97600000D03*
D18*
X131250000Y-97600000D03*
D17*
%TO.P,U1,3,VI*%
%TO.N,+5V*%
X137550000Y-95300000D03*
%TD*%
D19*
%TO.N,/3V3*%
X141600000Y-101200000D03*
%TO.N,+5V*%
X135200000Y-98800000D03*
X135600000Y-95800000D03*
%TD*%
%TO.N,Net-(D1-A)*%
D20*
X141724987Y-104837487D02*
X140000000Y-103112500D01*
X144400000Y-104940000D02*
X141972475Y-104940000D01*
X141724987Y-104837487D02*
G75*
G03*
X141972475Y-104940018I247513J247487D01*
G01*
%TO.N,/3V3*%
X137550000Y-97600000D02*
X131250000Y-97600000D01*
X137550000Y-97600000D02*
X139730025Y-97600000D01*
D21*
X140000000Y-101287500D02*
X141512500Y-101287500D01*
D20*
X143577513Y-97622487D02*
X145200000Y-96000000D01*
X139977513Y-97702513D02*
X140000000Y-97725000D01*
D21*
X141512500Y-101287500D02*
X141600000Y-101200000D01*
D20*
X142210000Y-97725000D02*
X140000000Y-97725000D01*
X142210000Y-97725000D02*
X143330025Y-97725000D01*
X143330025Y-97725000D02*
G75*
G03*
X143577500Y-97622474I-25J350000D01*
G01*
X139730025Y-97600000D02*
G75*
G02*
X139977500Y-97702526I-25J-350000D01*
G01*
%TO.N,+5V*%
X136222487Y-104807487D02*
X136100000Y-104685000D01*
X136100000Y-102475000D02*
X135302512Y-101677512D01*
X137152513Y-95697487D02*
X137550000Y-95300000D01*
X135600000Y-95800000D02*
X136905025Y-95800000D01*
X136100000Y-104685000D02*
X136100000Y-102475000D01*
X135200000Y-101430025D02*
X135200000Y-98800000D01*
X136325000Y-107400000D02*
X136325000Y-105054975D01*
X136905025Y-95800000D02*
G75*
G03*
X137152500Y-95697474I-25J350000D01*
G01*
X136325000Y-105054975D02*
G75*
G03*
X136222474Y-104807500I-350000J-25D01*
G01*
X135302512Y-101677512D02*
G75*
G02*
X135199982Y-101430025I247488J247512D01*
G01*
%TO.N,GND*%
X144297487Y-101712487D02*
X142210000Y-99625000D01*
X138102513Y-106637513D02*
X138865000Y-107400000D01*
X145200000Y-98540000D02*
X143439975Y-98540000D01*
X143192487Y-98642513D02*
X142210000Y-99625000D01*
X137550000Y-99900000D02*
X137550000Y-101880025D01*
X137652513Y-102127513D02*
X138000000Y-102475000D01*
X137722487Y-99727513D02*
X137550000Y-99900000D01*
X144400000Y-102400000D02*
X144400000Y-101959975D01*
X138000000Y-104685000D02*
X138000000Y-106390025D01*
X142210000Y-99625000D02*
X140000000Y-99625000D01*
X140000000Y-99625000D02*
X137969975Y-99625000D01*
X138000000Y-102475000D02*
X138000000Y-104685000D01*
X138102513Y-106637513D02*
G75*
G02*
X137999982Y-106390025I247487J247513D01*
G01*
X144297487Y-101712487D02*
G75*
G02*
X144400018Y-101959975I-247487J-247513D01*
G01*
X143439975Y-98540000D02*
G75*
G03*
X143192500Y-98642526I25J-350000D01*
G01*
X137652513Y-102127513D02*
G75*
G02*
X137549982Y-101880025I247487J247513D01*
G01*
X137722487Y-99727513D02*
G75*
G02*
X137969975Y-99624982I247513J-247487D01*
G01*
%TD*%
%TA.AperFunction,Conductor*%
%TO.N,GND*%
G36*
X146745930Y-92120185D02*
G01*
X146791685Y-92172989D01*
X146801629Y-92242147D01*
X146796822Y-92262819D01*
X146736446Y-92448631D01*
X146699500Y-92681902D01*
X146699500Y-92918097D01*
X146736446Y-93151368D01*
X146809433Y-93375996D01*
X146916657Y-93586433D01*
X147055483Y-93777510D01*
X147222490Y-93944517D01*
X147413567Y-94083343D01*
X147443038Y-94098359D01*
X147624003Y-94190566D01*
X147624005Y-94190566D01*
X147624008Y-94190568D01*
X147744412Y-94229689D01*
X147848631Y-94263553D01*
X148081903Y-94300500D01*
X148081908Y-94300500D01*
X148318097Y-94300500D01*
X148551368Y-94263553D01*
X148737182Y-94203177D01*
X148807022Y-94201183D01*
X148866855Y-94237263D01*
X148897684Y-94299964D01*
X148899500Y-94321109D01*
X148899500Y-106678890D01*
X148879815Y-106745929D01*
X148827011Y-106791684D01*
X148757853Y-106801628D01*
X148737182Y-106796821D01*
X148551370Y-106736447D01*
X148318097Y-106699500D01*
X148318092Y-106699500D01*
X148081908Y-106699500D01*
X148081903Y-106699500D01*
X147848631Y-106736446D01*
X147624003Y-106809433D01*
X147413566Y-106916657D01*
X147304550Y-106995862D01*
X147222490Y-107055483D01*
X147222488Y-107055485D01*
X147222487Y-107055485D01*
X147055485Y-107222487D01*
X147055485Y-107222488D01*
X147055483Y-107222490D01*
X147010886Y-107283872D01*
X146916657Y-107413566D01*
X146809433Y-107624003D01*
X146736446Y-107848631D01*
X146699500Y-108081902D01*
X146699500Y-108318097D01*
X146736446Y-108551368D01*
X146796822Y-108737181D01*
X146798817Y-108807022D01*
X146762737Y-108866855D01*
X146700036Y-108897684D01*
X146678891Y-108899500D01*
X139621361Y-108899500D01*
X139554322Y-108879815D01*
X139508567Y-108827011D01*
X139497743Y-108765772D01*
X139501717Y-108715270D01*
X138869408Y-108082962D01*
X138932993Y-108065925D01*
X139047007Y-108000099D01*
X139140099Y-107907007D01*
X139205925Y-107792993D01*
X139222962Y-107729409D01*
X139855270Y-108361717D01*
X139855270Y-108361716D01*
X139894622Y-108307554D01*
X139991095Y-108118217D01*
X140056757Y-107916130D01*
X140056757Y-107916127D01*
X140090000Y-107706246D01*
X140090000Y-107493753D01*
X140056757Y-107283872D01*
X140056757Y-107283869D01*
X139991095Y-107081782D01*
X139894624Y-106892449D01*
X139855270Y-106838282D01*
X139855269Y-106838282D01*
X139222962Y-107470590D01*
X139205925Y-107407007D01*
X139140099Y-107292993D01*
X139047007Y-107199901D01*
X138932993Y-107134075D01*
X138869409Y-107117037D01*
X139501716Y-106484728D01*
X139447550Y-106445375D01*
X139258217Y-106348904D01*
X139056129Y-106283242D01*
X138846246Y-106250000D01*
X138633754Y-106250000D01*
X138423872Y-106283242D01*
X138423869Y-106283242D01*
X138221782Y-106348904D01*
X138032439Y-106445380D01*
X137978282Y-106484727D01*
X137978282Y-106484728D01*
X138610591Y-107117037D01*
X138547007Y-107134075D01*
X138432993Y-107199901D01*
X138339901Y-107292993D01*
X138274075Y-107407007D01*
X138257037Y-107470591D01*
X137586818Y-106800372D01*
X137553333Y-106739049D01*
X137553330Y-106739036D01*
X137550499Y-106726015D01*
X137550499Y-106702128D01*
X137544091Y-106642517D01*
X137515926Y-106567002D01*
X137493798Y-106507673D01*
X137493793Y-106507664D01*
X137407547Y-106392455D01*
X137407544Y-106392452D01*
X137292335Y-106306206D01*
X137292330Y-106306203D01*
X137156166Y-106255417D01*
X137100233Y-106213545D01*
X137075816Y-106148081D01*
X137075500Y-106139235D01*
X137075500Y-105845435D01*
X137095185Y-105778396D01*
X137147989Y-105732641D01*
X137217147Y-105722697D01*
X137276414Y-105748171D01*
X137281657Y-105752317D01*
X137430875Y-105844356D01*
X137430880Y-105844358D01*
X137597302Y-105899505D01*
X137597309Y-105899506D01*
X137700019Y-105909999D01*
X138250000Y-105909999D01*
X138299972Y-105909999D01*
X138299986Y-105909998D01*
X138402697Y-105899505D01*
X138569119Y-105844358D01*
X138569124Y-105844356D01*
X138718345Y-105752315D01*
X138842315Y-105628345D01*
X138934356Y-105479124D01*
X138934358Y-105479119D01*
X138989505Y-105312697D01*
X138989506Y-105312690D01*
X138999999Y-105209986D01*
X139000000Y-105209973D01*
X139000000Y-104935000D01*
X138250000Y-104935000D01*
X138250000Y-105909999D01*
X137700019Y-105909999D01*
X137749999Y-105909998D01*
X137750000Y-105909998D01*
X137750000Y-102599000D01*
X137769685Y-102531961D01*
X137822489Y-102486206D01*
X137874000Y-102475000D01*
X138126000Y-102475000D01*
X138193039Y-102494685D01*
X138238794Y-102547489D01*
X138250000Y-102599000D01*
X138250000Y-104435000D01*
X138999999Y-104435000D01*
X138999999Y-104160028D01*
X138999998Y-104160008D01*
X138999116Y-104151379D01*
X139011882Y-104082685D01*
X139059760Y-104031799D01*
X139127549Y-104014875D01*
X139187569Y-104033232D01*
X139230659Y-104059810D01*
X139230660Y-104059810D01*
X139230666Y-104059814D01*
X139397203Y-104114999D01*
X139499991Y-104125500D01*
X139900269Y-104125499D01*
X139967308Y-104145183D01*
X139987950Y-104161818D01*
X141232790Y-105406658D01*
X141255544Y-105429412D01*
X141395685Y-105531231D01*
X141550029Y-105609874D01*
X141662777Y-105646508D01*
X141714771Y-105663402D01*
X141714773Y-105663402D01*
X141714775Y-105663403D01*
X141739216Y-105667274D01*
X141885861Y-105690500D01*
X141885867Y-105690500D01*
X141898557Y-105690500D01*
X143150976Y-105690500D01*
X143218015Y-105710185D01*
X143251294Y-105741615D01*
X143268917Y-105765871D01*
X143331754Y-105852361D01*
X143487636Y-106008243D01*
X143487641Y-106008247D01*
X143643192Y-106121260D01*
X143665978Y-106137815D01*
X143773379Y-106192539D01*
X143862393Y-106237895D01*
X143862396Y-106237896D01*
X143917833Y-106255908D01*
X144072049Y-106306015D01*
X144289778Y-106340500D01*
X144289779Y-106340500D01*
X144510221Y-106340500D01*
X144510222Y-106340500D01*
X144727951Y-106306015D01*
X144937606Y-106237895D01*
X145134022Y-106137815D01*
X145312365Y-106008242D01*
X145468242Y-105852365D01*
X145597815Y-105674022D01*
X145697895Y-105477606D01*
X145766015Y-105267951D01*
X145800500Y-105050222D01*
X145800500Y-104829778D01*
X145766015Y-104612049D01*
X145697895Y-104402394D01*
X145697895Y-104402393D01*
X145663237Y-104334375D01*
X145597815Y-104205978D01*
X145564416Y-104160008D01*
X145468247Y-104027641D01*
X145468243Y-104027636D01*
X145417683Y-103977076D01*
X145384198Y-103915753D01*
X145389182Y-103846061D01*
X145431054Y-103790128D01*
X145462031Y-103773213D01*
X145542086Y-103743354D01*
X145542093Y-103743350D01*
X145657187Y-103657190D01*
X145657190Y-103657187D01*
X145743350Y-103542093D01*
X145743354Y-103542086D01*
X145793596Y-103407379D01*
X145793598Y-103407372D01*
X145799999Y-103347844D01*
X145800000Y-103347827D01*
X145800000Y-102650000D01*
X144775278Y-102650000D01*
X144819333Y-102573694D01*
X144850000Y-102459244D01*
X144850000Y-102340756D01*
X144819333Y-102226306D01*
X144775278Y-102150000D01*
X145800000Y-102150000D01*
X145800000Y-101452172D01*
X145799999Y-101452155D01*
X145793598Y-101392627D01*
X145793596Y-101392620D01*
X145743354Y-101257913D01*
X145743350Y-101257906D01*
X145657190Y-101142812D01*
X145657187Y-101142809D01*
X145542093Y-101056649D01*
X145542086Y-101056645D01*
X145407379Y-101006403D01*
X145407372Y-101006401D01*
X145347844Y-101000000D01*
X144650000Y-101000000D01*
X144650000Y-102024722D01*
X144573694Y-101980667D01*
X144459244Y-101950000D01*
X144340756Y-101950000D01*
X144226306Y-101980667D01*
X144150000Y-102024722D01*
X144150000Y-101000000D01*
X143452155Y-101000000D01*
X143392627Y-101006401D01*
X143392620Y-101006403D01*
X143257913Y-101056645D01*
X143257906Y-101056649D01*
X143142812Y-101142809D01*
X143142809Y-101142812D01*
X143056649Y-101257906D01*
X143056645Y-101257913D01*
X143006403Y-101392620D01*
X143006401Y-101392627D01*
X143000000Y-101452155D01*
X143000000Y-102150000D01*
X144024722Y-102150000D01*
X143980667Y-102226306D01*
X143950000Y-102340756D01*
X143950000Y-102459244D01*
X143980667Y-102573694D01*
X144024722Y-102650000D01*
X143000000Y-102650000D01*
X143000000Y-103347844D01*
X143006401Y-103407372D01*
X143006403Y-103407379D01*
X143056645Y-103542086D01*
X143056649Y-103542093D01*
X143142809Y-103657187D01*
X143142812Y-103657190D01*
X143257906Y-103743350D01*
X143257913Y-103743354D01*
X143337968Y-103773213D01*
X143393902Y-103815084D01*
X143418319Y-103880549D01*
X143403467Y-103948822D01*
X143382317Y-103977075D01*
X143331754Y-104027638D01*
X143251295Y-104138384D01*
X143195965Y-104181051D01*
X143150976Y-104189500D01*
X142189730Y-104189500D01*
X142122691Y-104169815D01*
X142102049Y-104153181D01*
X141236818Y-103287950D01*
X141203333Y-103226627D01*
X141200499Y-103200269D01*
X141200499Y-102799998D01*
X141200498Y-102799981D01*
X141189999Y-102697203D01*
X141189998Y-102697200D01*
X141174357Y-102650000D01*
X141134814Y-102530666D01*
X141042712Y-102381344D01*
X140949049Y-102287681D01*
X140915564Y-102226358D01*
X140920548Y-102156666D01*
X140949049Y-102112319D01*
X141042712Y-102018656D01*
X141077201Y-101962739D01*
X141129147Y-101916016D01*
X141198110Y-101904793D01*
X141230191Y-101913276D01*
X141349613Y-101962741D01*
X141366503Y-101969737D01*
X141521153Y-102000499D01*
X141521156Y-102000500D01*
X141521158Y-102000500D01*
X141678844Y-102000500D01*
X141678845Y-102000499D01*
X141833497Y-101969737D01*
X141979179Y-101909394D01*
X142110289Y-101821789D01*
X142221789Y-101710289D01*
X142309394Y-101579179D01*
X142369737Y-101433497D01*
X142386118Y-101351144D01*
X142400500Y-101278844D01*
X142400500Y-101121155D01*
X142400499Y-101121153D01*
X142379703Y-101016607D01*
X142369737Y-100966503D01*
X142330677Y-100872203D01*
X142309397Y-100820827D01*
X142309392Y-100820818D01*
X142307437Y-100817892D01*
X142306883Y-100816123D01*
X142306521Y-100815446D01*
X142306649Y-100815377D01*
X142286558Y-100751215D01*
X142305041Y-100683834D01*
X142357019Y-100637143D01*
X142410538Y-100624999D01*
X142734972Y-100624999D01*
X142734986Y-100624998D01*
X142837697Y-100614505D01*
X143004119Y-100559358D01*
X143004124Y-100559356D01*
X143153345Y-100467315D01*
X143277315Y-100343345D01*
X143369356Y-100194124D01*
X143369358Y-100194119D01*
X143424505Y-100027697D01*
X143424506Y-100027690D01*
X143434999Y-99924986D01*
X143435000Y-99924973D01*
X143435000Y-99875000D01*
X140124000Y-99875000D01*
X140115314Y-99872449D01*
X140106353Y-99873738D01*
X140082312Y-99862759D01*
X140056961Y-99855315D01*
X140051033Y-99848474D01*
X140042797Y-99844713D01*
X140028507Y-99822478D01*
X140011206Y-99802511D01*
X140008918Y-99791996D01*
X140005023Y-99785935D01*
X140000000Y-99751000D01*
X140000000Y-99499000D01*
X140019685Y-99431961D01*
X140072489Y-99386206D01*
X140124000Y-99375000D01*
X143434999Y-99375000D01*
X143434999Y-99325028D01*
X143434998Y-99325013D01*
X143424505Y-99222302D01*
X143369358Y-99055880D01*
X143369356Y-99055875D01*
X143277315Y-98906654D01*
X143153344Y-98782683D01*
X143153341Y-98782681D01*
X143150339Y-98780829D01*
X143148713Y-98779021D01*
X143147677Y-98778202D01*
X143147817Y-98778024D01*
X143103617Y-98728880D01*
X143092397Y-98659917D01*
X143120243Y-98595836D01*
X143150344Y-98569754D01*
X143153656Y-98567712D01*
X143209549Y-98511819D01*
X143270872Y-98478334D01*
X143297230Y-98475500D01*
X143416638Y-98475500D01*
X143538841Y-98456145D01*
X143587725Y-98448403D01*
X143687682Y-98415924D01*
X143757523Y-98413930D01*
X143817356Y-98450010D01*
X143848184Y-98512711D01*
X143850000Y-98533856D01*
X143850000Y-98646246D01*
X143883242Y-98856127D01*
X143883242Y-98856130D01*
X143948904Y-99058217D01*
X144045375Y-99247550D01*
X144084728Y-99301716D01*
X144717037Y-98669408D01*
X144734075Y-98732993D01*
X144799901Y-98847007D01*
X144892993Y-98940099D01*
X145007007Y-99005925D01*
X145070590Y-99022962D01*
X144438282Y-99655269D01*
X144438282Y-99655270D01*
X144492449Y-99694624D01*
X144681782Y-99791095D01*
X144883870Y-99856757D01*
X145093754Y-99890000D01*
X145306246Y-99890000D01*
X145516127Y-99856757D01*
X145516130Y-99856757D01*
X145718217Y-99791095D01*
X145907554Y-99694622D01*
X145961716Y-99655270D01*
X145961717Y-99655270D01*
X145329408Y-99022962D01*
X145392993Y-99005925D01*
X145507007Y-98940099D01*
X145600099Y-98847007D01*
X145665925Y-98732993D01*
X145682962Y-98669408D01*
X146315270Y-99301717D01*
X146315270Y-99301716D01*
X146354622Y-99247554D01*
X146451095Y-99058217D01*
X146516757Y-98856130D01*
X146516757Y-98856127D01*
X146550000Y-98646246D01*
X146550000Y-98433753D01*
X146516757Y-98223872D01*
X146516757Y-98223869D01*
X146451095Y-98021782D01*
X146354624Y-97832449D01*
X146315270Y-97778282D01*
X146315269Y-97778282D01*
X145682962Y-98410590D01*
X145665925Y-98347007D01*
X145600099Y-98232993D01*
X145507007Y-98139901D01*
X145392993Y-98074075D01*
X145329408Y-98057037D01*
X145999627Y-97386818D01*
X146060950Y-97353333D01*
X146087308Y-97350499D01*
X146097871Y-97350499D01*
X146097872Y-97350499D01*
X146157483Y-97344091D01*
X146292331Y-97293796D01*
X146407546Y-97207546D01*
X146493796Y-97092331D01*
X146544091Y-96957483D01*
X146550500Y-96897873D01*
X146550499Y-95102128D01*
X146544091Y-95042517D01*
X146543175Y-95040062D01*
X146493797Y-94907671D01*
X146493793Y-94907664D01*
X146407547Y-94792455D01*
X146407544Y-94792452D01*
X146292335Y-94706206D01*
X146292328Y-94706202D01*
X146157482Y-94655908D01*
X146157483Y-94655908D01*
X146097883Y-94649501D01*
X146097881Y-94649500D01*
X146097873Y-94649500D01*
X146097864Y-94649500D01*
X144302129Y-94649500D01*
X144302123Y-94649501D01*
X144242516Y-94655908D01*
X144107671Y-94706202D01*
X144107664Y-94706206D01*
X143992455Y-94792452D01*
X143992452Y-94792455D01*
X143906206Y-94907664D01*
X143906202Y-94907671D01*
X143855908Y-95042517D01*
X143850738Y-95090609D01*
X143849501Y-95102123D01*
X143849500Y-95102135D01*
X143849500Y-96237769D01*
X143829815Y-96304808D01*
X143813181Y-96325450D01*
X143286497Y-96852133D01*
X143225174Y-96885618D01*
X143155482Y-96880634D01*
X143133720Y-96869991D01*
X143004340Y-96790189D01*
X143004335Y-96790187D01*
X143004334Y-96790186D01*
X142837797Y-96735001D01*
X142837795Y-96735000D01*
X142735010Y-96724500D01*
X141684998Y-96724500D01*
X141684980Y-96724501D01*
X141582203Y-96735000D01*
X141582200Y-96735001D01*
X141415668Y-96790185D01*
X141415663Y-96790187D01*
X141266342Y-96882289D01*
X141210451Y-96938181D01*
X141149128Y-96971666D01*
X141122770Y-96974500D01*
X141087230Y-96974500D01*
X141020191Y-96954815D01*
X140999549Y-96938181D01*
X140943657Y-96882289D01*
X140943656Y-96882288D01*
X140794334Y-96790186D01*
X140627797Y-96735001D01*
X140627795Y-96735000D01*
X140525010Y-96724500D01*
X139474998Y-96724500D01*
X139474980Y-96724501D01*
X139372203Y-96735000D01*
X139372200Y-96735001D01*
X139205668Y-96790185D01*
X139205659Y-96790189D01*
X139139432Y-96831039D01*
X139074336Y-96849500D01*
X139042942Y-96849500D01*
X138975903Y-96829815D01*
X138931854Y-96780594D01*
X138917030Y-96750704D01*
X138797722Y-96602278D01*
X138797721Y-96602277D01*
X138728514Y-96546647D01*
X138688595Y-96489304D01*
X138686015Y-96419482D01*
X138721594Y-96359349D01*
X138728514Y-96353353D01*
X138737909Y-96345800D01*
X138797722Y-96297722D01*
X138917030Y-96149296D01*
X139001641Y-95978693D01*
X139047600Y-95793889D01*
X139050500Y-95751123D01*
X139050499Y-94848878D01*
X139047600Y-94806111D01*
X139001641Y-94621307D01*
X138999046Y-94616075D01*
X138917032Y-94450707D01*
X138917030Y-94450704D01*
X138797722Y-94302278D01*
X138797721Y-94302277D01*
X138649295Y-94182969D01*
X138649292Y-94182967D01*
X138478697Y-94098360D01*
X138293892Y-94052400D01*
X138272506Y-94050950D01*
X138251123Y-94049500D01*
X138251120Y-94049500D01*
X136848877Y-94049500D01*
X136848874Y-94049501D01*
X136806113Y-94052399D01*
X136806112Y-94052399D01*
X136621303Y-94098360D01*
X136450707Y-94182967D01*
X136450704Y-94182969D01*
X136302278Y-94302277D01*
X136302277Y-94302278D01*
X136182969Y-94450704D01*
X136182967Y-94450707D01*
X136098360Y-94621302D01*
X136052400Y-94806107D01*
X136049500Y-94848879D01*
X136049500Y-94925500D01*
X136029815Y-94992539D01*
X135977011Y-95038294D01*
X135925500Y-95049500D01*
X135904604Y-95049500D01*
X135857155Y-95040062D01*
X135833497Y-95030263D01*
X135833493Y-95030262D01*
X135833488Y-95030260D01*
X135678845Y-94999500D01*
X135678842Y-94999500D01*
X135521158Y-94999500D01*
X135521155Y-94999500D01*
X135366510Y-95030261D01*
X135366498Y-95030264D01*
X135220827Y-95090602D01*
X135220814Y-95090609D01*
X135089711Y-95178210D01*
X135089707Y-95178213D01*
X134978213Y-95289707D01*
X134978210Y-95289711D01*
X134890609Y-95420814D01*
X134890602Y-95420827D01*
X134830264Y-95566498D01*
X134830261Y-95566510D01*
X134799500Y-95721153D01*
X134799500Y-95878846D01*
X134830261Y-96033489D01*
X134830264Y-96033501D01*
X134890602Y-96179172D01*
X134890609Y-96179185D01*
X134978210Y-96310288D01*
X134978213Y-96310292D01*
X135089707Y-96421786D01*
X135089711Y-96421789D01*
X135220814Y-96509390D01*
X135220827Y-96509397D01*
X135310758Y-96546647D01*
X135366503Y-96569737D01*
X135521153Y-96600499D01*
X135521156Y-96600500D01*
X135521158Y-96600500D01*
X135678844Y-96600500D01*
X135678845Y-96600499D01*
X135755152Y-96585320D01*
X135833488Y-96569739D01*
X135833489Y-96569738D01*
X135833497Y-96569737D01*
X135857155Y-96559937D01*
X135904604Y-96550500D01*
X136085131Y-96550500D01*
X136152170Y-96570185D01*
X136197925Y-96622989D01*
X136207869Y-96692147D01*
X136185255Y-96744185D01*
X136186591Y-96745039D01*
X136182969Y-96750704D01*
X136168146Y-96780594D01*
X136120725Y-96831907D01*
X136057058Y-96849500D01*
X132874499Y-96849500D01*
X132807460Y-96829815D01*
X132761705Y-96777011D01*
X132750499Y-96725500D01*
X132750499Y-96141971D01*
X132750499Y-96141964D01*
X132739886Y-96022582D01*
X132683909Y-95826951D01*
X132589698Y-95646593D01*
X132524389Y-95566498D01*
X132461109Y-95488890D01*
X132303409Y-95360304D01*
X132303410Y-95360304D01*
X132303407Y-95360302D01*
X132123049Y-95266091D01*
X132123048Y-95266090D01*
X132123045Y-95266089D01*
X132005829Y-95232550D01*
X131927418Y-95210114D01*
X131927415Y-95210113D01*
X131927413Y-95210113D01*
X131861102Y-95204217D01*
X131808037Y-95199500D01*
X131808032Y-95199500D01*
X130691971Y-95199500D01*
X130691965Y-95199500D01*
X130691964Y-95199501D01*
X130680316Y-95200536D01*
X130572584Y-95210113D01*
X130376954Y-95266089D01*
X130286772Y-95313196D01*
X130196593Y-95360302D01*
X130196591Y-95360303D01*
X130196590Y-95360304D01*
X130038890Y-95488890D01*
X129910304Y-95646590D01*
X129816089Y-95826954D01*
X129760114Y-96022583D01*
X129760113Y-96022586D01*
X129749500Y-96141966D01*
X129749500Y-99058028D01*
X129749501Y-99058034D01*
X129760113Y-99177415D01*
X129816089Y-99373045D01*
X129816090Y-99373048D01*
X129816091Y-99373049D01*
X129910302Y-99553407D01*
X129910304Y-99553409D01*
X130038890Y-99711109D01*
X130087813Y-99751000D01*
X130196593Y-99839698D01*
X130376951Y-99933909D01*
X130572582Y-99989886D01*
X130691963Y-100000500D01*
X131808036Y-100000499D01*
X131927418Y-99989886D01*
X132123049Y-99933909D01*
X132303407Y-99839698D01*
X132461109Y-99711109D01*
X132589698Y-99553407D01*
X132683909Y-99373049D01*
X132739886Y-99177418D01*
X132750500Y-99058037D01*
X132750500Y-98474500D01*
X132770185Y-98407461D01*
X132822989Y-98361706D01*
X132874500Y-98350500D01*
X134334155Y-98350500D01*
X134401194Y-98370185D01*
X134446949Y-98422989D01*
X134456893Y-98492147D01*
X134448716Y-98521952D01*
X134430264Y-98566498D01*
X134430261Y-98566510D01*
X134399500Y-98721153D01*
X134399500Y-98878846D01*
X134430261Y-99033489D01*
X134430263Y-99033497D01*
X134439534Y-99055880D01*
X134440061Y-99057151D01*
X134449500Y-99104604D01*
X134449500Y-101351144D01*
X134449500Y-101430025D01*
X134449500Y-101516636D01*
X134451830Y-101531344D01*
X134476598Y-101687726D01*
X134530124Y-101852466D01*
X134530125Y-101852469D01*
X134608769Y-102006815D01*
X134710578Y-102146945D01*
X134716434Y-102152801D01*
X134716463Y-102152832D01*
X135063181Y-102499549D01*
X135096666Y-102560872D01*
X135099500Y-102587230D01*
X135099500Y-103000001D01*
X135099501Y-103000019D01*
X135110000Y-103102796D01*
X135110001Y-103102799D01*
X135142300Y-103200269D01*
X135165186Y-103269334D01*
X135250332Y-103407379D01*
X135257289Y-103418657D01*
X135313181Y-103474549D01*
X135346666Y-103535872D01*
X135349500Y-103562230D01*
X135349500Y-103597770D01*
X135329815Y-103664809D01*
X135313181Y-103685451D01*
X135257289Y-103741342D01*
X135165187Y-103890663D01*
X135165186Y-103890666D01*
X135110001Y-104057203D01*
X135110001Y-104057204D01*
X135110000Y-104057204D01*
X135099500Y-104159983D01*
X135099500Y-105210001D01*
X135099501Y-105210019D01*
X135110000Y-105312796D01*
X135110001Y-105312799D01*
X135165185Y-105479331D01*
X135165187Y-105479336D01*
X135197196Y-105531231D01*
X135257288Y-105628656D01*
X135381344Y-105752712D01*
X135515597Y-105835519D01*
X135562321Y-105887465D01*
X135574500Y-105941057D01*
X135574500Y-106125500D01*
X135554815Y-106192539D01*
X135502011Y-106238294D01*
X135450501Y-106249500D01*
X135302130Y-106249500D01*
X135302123Y-106249501D01*
X135242516Y-106255908D01*
X135107671Y-106306202D01*
X135107664Y-106306206D01*
X134992455Y-106392452D01*
X134992452Y-106392455D01*
X134906206Y-106507664D01*
X134906202Y-106507671D01*
X134855908Y-106642517D01*
X134849501Y-106702116D01*
X134849500Y-106702135D01*
X134849500Y-108497870D01*
X134849501Y-108497876D01*
X134855908Y-108557483D01*
X134906202Y-108692328D01*
X134906206Y-108692334D01*
X134912835Y-108701190D01*
X134937252Y-108766654D01*
X134922400Y-108834927D01*
X134872995Y-108884332D01*
X134813568Y-108899500D01*
X131721109Y-108899500D01*
X131654070Y-108879815D01*
X131608315Y-108827011D01*
X131598371Y-108757853D01*
X131603178Y-108737181D01*
X131610298Y-108715270D01*
X131663553Y-108551368D01*
X131684316Y-108420275D01*
X131700500Y-108318097D01*
X131700500Y-108081902D01*
X131663553Y-107848631D01*
X131616810Y-107704773D01*
X131590568Y-107624008D01*
X131590566Y-107624005D01*
X131590566Y-107624003D01*
X131483342Y-107413566D01*
X131478577Y-107407007D01*
X131344517Y-107222490D01*
X131177510Y-107055483D01*
X130986433Y-106916657D01*
X130775996Y-106809433D01*
X130551368Y-106736446D01*
X130318097Y-106699500D01*
X130318092Y-106699500D01*
X130081908Y-106699500D01*
X130081903Y-106699500D01*
X129848630Y-106736447D01*
X129848627Y-106736447D01*
X129662818Y-106796821D01*
X129592977Y-106798816D01*
X129533144Y-106762736D01*
X129502316Y-106700035D01*
X129500500Y-106678890D01*
X129500500Y-94321109D01*
X129520185Y-94254070D01*
X129572989Y-94208315D01*
X129642147Y-94198371D01*
X129662813Y-94203176D01*
X129767720Y-94237263D01*
X129848631Y-94263553D01*
X130081903Y-94300500D01*
X130081908Y-94300500D01*
X130318097Y-94300500D01*
X130551368Y-94263553D01*
X130775992Y-94190568D01*
X130986433Y-94083343D01*
X131177510Y-93944517D01*
X131344517Y-93777510D01*
X131483343Y-93586433D01*
X131590568Y-93375992D01*
X131663553Y-93151368D01*
X131688929Y-92991150D01*
X131700500Y-92918097D01*
X131700500Y-92681902D01*
X131663553Y-92448631D01*
X131603178Y-92262819D01*
X131601183Y-92192978D01*
X131637263Y-92133145D01*
X131699964Y-92102316D01*
X131721109Y-92100500D01*
X146678891Y-92100500D01*
X146745930Y-92120185D01*
G37*
%TD.AperFunction*%
%TA.AperFunction,Conductor*%
G36*
X138274075Y-107792993D02*
G01*
X138339901Y-107907007D01*
X138432993Y-108000099D01*
X138547007Y-108065925D01*
X138610590Y-108082962D01*
X137978282Y-108715269D01*
X137982257Y-108765771D01*
X137967893Y-108834148D01*
X137918842Y-108883905D01*
X137858639Y-108899500D01*
X137586432Y-108899500D01*
X137519393Y-108879815D01*
X137473638Y-108827011D01*
X137463694Y-108757853D01*
X137487165Y-108701190D01*
X137491628Y-108695227D01*
X137493796Y-108692331D01*
X137544091Y-108557483D01*
X137550500Y-108497873D01*
X137550499Y-108487312D01*
X137570179Y-108420275D01*
X137586818Y-108399626D01*
X138257037Y-107729408D01*
X138274075Y-107792993D01*
G37*
%TD.AperFunction*%
%TA.AperFunction,Conductor*%
G36*
X136848908Y-101150000D02*
G01*
X137262188Y-101150000D01*
X137329227Y-101169685D01*
X137374982Y-101222489D01*
X137384926Y-101291647D01*
X137355901Y-101355203D01*
X137327285Y-101379538D01*
X137281659Y-101407680D01*
X137281655Y-101407683D01*
X137157683Y-101531655D01*
X137157679Y-101531660D01*
X137155826Y-101534665D01*
X137154018Y-101536290D01*
X137153202Y-101537323D01*
X137153025Y-101537183D01*
X137103874Y-101581385D01*
X137034911Y-101592601D01*
X136970831Y-101564752D01*
X136944753Y-101534653D01*
X136944737Y-101534628D01*
X136942712Y-101531344D01*
X136818656Y-101407288D01*
X136818652Y-101407285D01*
X136772933Y-101379085D01*
X136726208Y-101327137D01*
X136714987Y-101258175D01*
X136742830Y-101194093D01*
X136800899Y-101155237D01*
X136846436Y-101149832D01*
X136848908Y-101150000D01*
G37*
%TD.AperFunction*%
%TD*%
M02*
