%TF.GenerationSoftware,KiCad,Pcbnew,10.0.6*%
%TF.CreationDate,2026-09-17T00:36:35+00:00*%
%TF.ProjectId,5V to 3.3V LDO,35562074-6f20-4332-9e33-56204c444f2e,rev?*%
%TF.SameCoordinates,Original*%
%TF.FileFunction,Copper,L1,Top*%
%TF.FilePolarity,Positive*%
%FSLAX46Y46*%
G04 Gerber Fmt 4.6, Leading zero omitted, Abs format (unit mm)*
G04 Created by KiCad (PCBNEW 10.0.6) date 2026-09-17 00:36:35*
%MOMM*%
%LPD*%
G01*
G04 APERTURE LIST*
G04 Aperture macros list*
%AMRoundRect*
0 Rectangle with rounded corners*
0 $1 Rounding radius*
0 $2 $3 $4 $5 $6 $7 $8 $9 X,Y pos of 4 corners*
0 Add a 4 corners polygon primitive as box body*
4,1,4,$2,$3,$4,$5,$6,$7,$8,$9,$2,$3,0*
0 Add four circle primitives for the rounded corners*
1,1,$1+$1,$2,$3*
1,1,$1+$1,$4,$5*
1,1,$1+$1,$6,$7*
1,1,$1+$1,$8,$9*
0 Add four rect primitives between the rounded corners*
20,1,$1+$1,$2,$3,$4,$5,0*
20,1,$1+$1,$4,$5,$6,$7,0*
20,1,$1+$1,$6,$7,$8,$9,0*
20,1,$1+$1,$8,$9,$2,$3,0*%
G04 Aperture macros list end*
%TA.AperFunction,SMDPad,CuDef*%
%ADD10RoundRect,0.250000X0.450000X-0.262500X0.450000X0.262500X-0.450000X0.262500X-0.450000X-0.262500X0*%
%TD*%
%TA.AperFunction,SMDPad,CuDef*%
%ADD11RoundRect,0.250000X-0.250000X-0.475000X0.250000X-0.475000X0.250000X0.475000X-0.250000X0.475000X0*%
%TD*%
%TA.AperFunction,ComponentPad*%
%ADD12R,1.800000X1.800000*%
%TD*%
%TA.AperFunction,ComponentPad*%
%ADD13C,1.800000*%
%TD*%
%TA.AperFunction,SMDPad,CuDef*%
%ADD14RoundRect,0.250000X-0.475000X0.250000X-0.475000X-0.250000X0.475000X-0.250000X0.475000X0.250000X0*%
%TD*%
%TA.AperFunction,ComponentPad*%
%ADD15R,1.700000X1.700000*%
%TD*%
%TA.AperFunction,ComponentPad*%
%ADD16C,1.700000*%
%TD*%
%TA.AperFunction,SMDPad,CuDef*%
%ADD17RoundRect,0.375000X0.625000X0.375000X-0.625000X0.375000X-0.625000X-0.375000X0.625000X-0.375000X0*%
%TD*%
%TA.AperFunction,SMDPad,CuDef*%
%ADD18RoundRect,0.500000X0.500000X1.400000X-0.500000X1.400000X-0.500000X-1.400000X0.500000X-1.400000X0*%
%TD*%
%TA.AperFunction,ViaPad*%
%ADD19C,0.600000*%
%TD*%
%TA.AperFunction,Conductor*%
%ADD20C,0.500000*%
%TD*%
%TA.AperFunction,Conductor*%
%ADD21C,0.200000*%
%TD*%
G04 APERTURE END LIST*
D10*
%TO.P,R1,1*%
%TO.N,Net-(D1-A)*%
X140000000Y-103112500D03*
%TO.P,R1,2*%
%TO.N,/3V3*%
X140000000Y-101287500D03*
%TD*%
D11*
%TO.P,C2,1*%
%TO.N,+5V*%
X136100000Y-104685000D03*
%TO.P,C2,2*%
%TO.N,GND*%
X138000000Y-104685000D03*
%TD*%
D12*
%TO.P,D1,1,K*%
%TO.N,GND*%
X144400000Y-102400000D03*
D13*
%TO.P,D1,2,A*%
%TO.N,Net-(D1-A)*%
X144400000Y-104940000D03*
%TD*%
D14*
%TO.P,C4,1*%
%TO.N,/3V3*%
X140000000Y-97725000D03*
%TO.P,C4,2*%
%TO.N,GND*%
X140000000Y-99625000D03*
%TD*%
D15*
%TO.P,J2,1,Pin_1*%
%TO.N,/3V3*%
X145200000Y-96000000D03*
D16*
%TO.P,J2,2,Pin_2*%
%TO.N,GND*%
X145200000Y-98540000D03*
%TD*%
D14*
%TO.P,C3,1*%
%TO.N,/3V3*%
X142210000Y-97725000D03*
%TO.P,C3,2*%
%TO.N,GND*%
X142210000Y-99625000D03*
%TD*%
D15*
%TO.P,J1,1,Pin_1*%
%TO.N,+5V*%
X136200000Y-107600000D03*
D16*
%TO.P,J1,2,Pin_2*%
%TO.N,GND*%
X138740000Y-107600000D03*
%TD*%
D11*
%TO.P,C1,1*%
%TO.N,+5V*%
X136100000Y-102475000D03*
%TO.P,C1,2*%
%TO.N,GND*%
X138000000Y-102475000D03*
%TD*%
D17*
%TO.P,U1,1,GND*%
%TO.N,GND*%
X137550000Y-99900000D03*
%TO.P,U1,2,VO*%
%TO.N,/3V3*%
X137550000Y-97600000D03*
D18*
X131250000Y-97600000D03*
D17*
%TO.P,U1,3,VI*%
%TO.N,+5V*%
X137550000Y-95300000D03*
%TD*%
D19*
%TO.N,/3V3*%
X141600000Y-101200000D03*
%TO.N,+5V*%
X135200000Y-98800000D03*
X135600000Y-95800000D03*
%TD*%
%TO.N,Net-(D1-A)*%
D20*
X141724987Y-104837487D02*
X140000000Y-103112500D01*
X144400000Y-104940000D02*
X141972475Y-104940000D01*
X141724987Y-104837487D02*
G75*
G03*
X141972475Y-104940018I247513J247487D01*
G01*
%TO.N,/3V3*%
X137550000Y-97600000D02*
X131250000Y-97600000D01*
X137550000Y-97600000D02*
X139730025Y-97600000D01*
D21*
X140000000Y-101287500D02*
X141512500Y-101287500D01*
D20*
X143577513Y-97622487D02*
X145200000Y-96000000D01*
X139977513Y-97702513D02*
X140000000Y-97725000D01*
D21*
X141512500Y-101287500D02*
X141600000Y-101200000D01*
D20*
X142210000Y-97725000D02*
X140000000Y-97725000D01*
X142210000Y-97725000D02*
X143330025Y-97725000D01*
X143330025Y-97725000D02*
G75*
G03*
X143577500Y-97622474I-25J350000D01*
G01*
X139730025Y-97600000D02*
G75*
G02*
X139977500Y-97702526I-25J-350000D01*
G01*
%TO.N,+5V*%
X136222487Y-104807487D02*
X136100000Y-104685000D01*
X136100000Y-102475000D02*
X135302512Y-101677512D01*
X137152513Y-95697487D02*
X137550000Y-95300000D01*
X135600000Y-95800000D02*
X136905025Y-95800000D01*
X136100000Y-104685000D02*
X136100000Y-102475000D01*
X135200000Y-101430025D02*
X135200000Y-98800000D01*
X136325000Y-107400000D02*
X136325000Y-105054975D01*
X136905025Y-95800000D02*
G75*
G03*
X137152500Y-95697474I-25J350000D01*
G01*
X136325000Y-105054975D02*
G75*
G03*
X136222474Y-104807500I-350000J-25D01*
G01*
X135302512Y-101677512D02*
G75*
G02*
X135199982Y-101430025I247488J247512D01*
G01*
%TO.N,GND*%
X144297487Y-101712487D02*
X142210000Y-99625000D01*
X138102513Y-106637513D02*
X138865000Y-107400000D01*
X145200000Y-98540000D02*
X143439975Y-98540000D01*
X143192487Y-98642513D02*
X142210000Y-99625000D01*
X137550000Y-99900000D02*
X137550000Y-101880025D01*
X137652513Y-102127513D02*
X138000000Y-102475000D01*
X137722487Y-99727513D02*
X137550000Y-99900000D01*
X144400000Y-102400000D02*
X144400000Y-101959975D01*
X138000000Y-104685000D02*
X138000000Y-106390025D01*
X142210000Y-99625000D02*
X140000000Y-99625000D01*
X140000000Y-99625000D02*
X137969975Y-99625000D01*
X138000000Y-102475000D02*
X138000000Y-104685000D01*
X138102513Y-106637513D02*
G75*
G02*
X137999982Y-106390025I247487J247513D01*
G01*
X144297487Y-101712487D02*
G75*
G02*
X144400018Y-101959975I-247487J-247513D01*
G01*
X143439975Y-98540000D02*
G75*
G03*
X143192500Y-98642526I25J-350000D01*
G01*
X137652513Y-102127513D02*
G75*
G02*
X137549982Y-101880025I247487J247513D01*
G01*
X137722487Y-99727513D02*
G75*
G02*
X137969975Y-99624982I247513J-247487D01*
G01*
%TD*%
M02*
